# xmcd
#
# Track frame offsets:
#	183
#	26533
#	45265
#	66083
#	80613
#	98833
#	113903
#	133115
#	147998
#
# Disc length: 2256 seconds
#
# Revision: 0
# Processed by: cddbd v1.4b42PL1 Copyright (c) Steve Scherf et al.
# Submitted via: EasyCDDAExtractor 4.5.0.2
#
DISCID=7508ce09
DTITLE=Trovante - Terra Firme
DYEAR=1987
DGENRE=Portugal
TTITLE0=125 Azul
TTITLE1=Fiz-me à cidade
TTITLE2=Memórias de um beijo
TTITLE3=Um caso mais
TTITLE4=Bye-bye blackout
TTITLE5=Noite de verão
TTITLE6=Sinais
TTITLE7=terra à vista
TTITLE8=Perdidamente
EXTD=
EXTT0=
EXTT1=
EXTT2=
EXTT3=
EXTT4=
EXTT5=
EXTT6=
EXTT7=
EXTT8=
PLAYORDER=
